<?xml version="1.0" encoding="UTF-8" standalone="no"?>

<svg xmlns="http://www.w3.org/2000/svg" version="1.1" height="50" width="50">
  <title>King</title>
  <g stroke-miterlimit="4" stroke-width="1.5" stroke-dasharray="none" transform="matrix(1.4373857,0,0,1.4234875,-7.2974204,-7.4733086)">
    <path stroke-linejoin="miter" d="M22.5,11.63,22.5,6" stroke="#000" stroke-linecap="round" fill="none"/>
    <path stroke-linejoin="miter" d="m22.5,25s4.5-7.5,3-10.5c0,0-1-2.5-3-2.5s-3,2.5-3,2.5c-1.5,3,3,10.5,3,10.5" fill-rule="evenodd" stroke="#000" stroke-linecap="butt" fill="#000"/>
    <path stroke-linejoin="round" d="m11.5,37c5.5,3.5,15.5,3.5,21,0v-7s9-4.5,6-10.5c-4-6.5-13.5-3.5-16,4v3.5-3.5c-3.5-7.5-13-10.5-16-4-3,6,5,10,5,10v7.5z" fill-rule="evenodd" stroke="#000" stroke-linecap="round" fill="#000"/>
    <path stroke-linejoin="miter" d="m20,8,5,0" stroke="#000" stroke-linecap="round" fill="none"/>
    <path stroke-linejoin="round" d="m32,29.5s8.5-4,6.03-9.65c-3.88-5.85-13.03-1.85-15.53,4.65l0.01,2.1-0.01-2.1c-2.5-6.5-12.594-10.5-15.503-4.65-2.497,5.65,4.853,9,4.853,9" stroke="#FFF" stroke-linecap="round" fill="none"/>
    <path stroke-linejoin="round" d="m11.5,30c5.5-3,15.5-3,21,0m-21,3.5c5.5-3,15.5-3,21,0m-21,3.5c5.5-3,15.5-3,21,0" stroke="#FFF" stroke-linecap="round" fill="none"/>
  </g>
</svg>
