<?xml version="1.0" encoding="UTF-8" standalone="no"?>

<svg xmlns="http://www.w3.org/2000/svg" version="1.1" height="50" width="50">
  <title>Knight</title>
  <g transform="matrix(1.4912192,0,0,1.4925373,-7.8284143,-16.791044)">
    <path stroke-linejoin="round" d="m22,15c10.5,1,16.5,8,16,29h-23c0-9,10-6.5,8-21" stroke="#000" stroke-linecap="round" stroke-miterlimit="4" stroke-dasharray="none" stroke-width="1.5" fill="#000"/>
    <path stroke-linejoin="round" d="m24,23c0.38,2.91-5.55,7.37-8,9-3,2-2.82,4.34-5,4-1.042-0.94,1.41-3.04,0-3-1,0,0.19,1.23-1,2-1,0-4.003,1-4-4,0-2,6-12,6-12s1.89-1.9,2-3.5c-0.73-0.994-0.5-2-0.5-3,1-1,3,2.5,3,2.5h2s0.78-1.992,2.5-3c1,0,1,3,1,3" stroke="#000" stroke-linecap="round" stroke-miterlimit="4" stroke-dasharray="none" stroke-width="1.5" fill="#000"/>
    <path stroke-linejoin="round" d="m9.5,30.5a0.5,0.5,0,0,1,-1,0,0.5,0.5,0,1,1,1,0z" stroke="#FFF" stroke-linecap="round" stroke-miterlimit="4" stroke-dasharray="none" stroke-width="1.5" fill="#FFF"/>
    <path stroke-linejoin="round" d="m14.933,20.75a0.49999,1.5,30.001,0,1,-0.866,-0.5,0.49999,1.5,30.001,0,1,0.866,0.5z" stroke="#FFF" stroke-linecap="round" stroke-miterlimit="4" stroke-dasharray="none" stroke-width="1.49996698" fill="#FFF"/>
    <path fill="#FFF" d="M24.55,15.4,24.1,16.85,24.6,17c3.15,1,5.65,2.49,7.9,6.75s3.25,10.31,2.75,20.25l-0.05,0.5h2.25l0.05-0.5c0.5-10.06-0.88-16.85-3.25-21.34s-5.79-6.64-9.19-7.16l-0.51-0.1z"/>
  </g>
</svg>
