<?xml version="1.0" encoding="UTF-8" standalone="no"?>

<svg xmlns="http://www.w3.org/2000/svg" version="1.1" height="50" width="50">
  <title>Rook</title>
  <g transform="matrix(1.5873016,0,0,1.5873016,-10.714286,-13.095238)" stroke="#000" stroke-miterlimit="4" stroke-dasharray="none" stroke-width="1.5">
    <path stroke-linejoin="round" d="m9,39,27,0,0-3-27,0,0,3z" fill-rule="evenodd" stroke-linecap="butt" fill="#FFF"/>
    <path stroke-linejoin="round" d="m12,36,0-4,21,0,0,4-21,0z" fill-rule="evenodd" stroke-linecap="butt" fill="#FFF"/>
    <path stroke-linejoin="round" d="m11,14,0-5,4,0,0,2,5,0,0-2,5,0,0,2,5,0,0-2,4,0,0,5" fill-rule="evenodd" stroke-linecap="butt" fill="#FFF"/>
    <path stroke-linejoin="round" d="m34,14-3,3-17,0-3-3" fill-rule="evenodd" stroke-linecap="round" fill="#FFF"/>
    <path stroke-linejoin="miter" d="m31,17,0,12.5-17,0,0-12.5" fill-rule="evenodd" stroke-linecap="butt" fill="#FFF"/>
    <path stroke-linejoin="round" d="m31,29.5,1.5,2.5-20,0,1.5-2.5" fill-rule="evenodd" stroke-linecap="round" fill="#FFF"/>
    <path stroke-linejoin="miter" d="m11,14,23,0" stroke-linecap="round" fill="none"/>
  </g>
</svg>
