<?xml version="1.0" encoding="UTF-8" standalone="no"?>

<svg xmlns="http://www.w3.org/2000/svg" version="1.1" height="50" width="50">
  <title>Queen</title>
  <g stroke-linejoin="round" transform="matrix(1.2987013,0,0,1.2987013,-4.2207793,-4.0584416)" stroke="#000" stroke-miterlimit="4" stroke-dasharray="none" stroke-width="1.5">
    <path d="m8,12a2,2,0,0,1,-4,0,2,2,0,1,1,4,0z" fill-rule="evenodd" stroke-linecap="round" fill="#FFF"/>
    <path d="m24.5,7.5a2,2,0,0,1,-4,0,2,2,0,1,1,4,0z" fill-rule="evenodd" stroke-linecap="round" fill="#FFF"/>
    <path d="m41,12a2,2,0,0,1,-4,0,2,2,0,1,1,4,0z" fill-rule="evenodd" stroke-linecap="round" fill="#FFF"/>
    <path d="m16,8.5a2,2,0,0,1,-4,0,2,2,0,1,1,4,0z" fill-rule="evenodd" stroke-linecap="round" fill="#FFF"/>
    <path d="m33,9a2,2,0,0,1,-4,0,2,2,0,1,1,4,0z" fill-rule="evenodd" stroke-linecap="round" fill="#FFF"/>
    <path d="m9,26c8.5-1.5,21-1.5,27,0l2-12-7,11v-14l-5.5,13.5-3-15-3,15-5.5-14v14.5l-7-11,2,12z" fill-rule="evenodd" stroke-linecap="butt" fill="#FFF"/>
    <path d="m9,26c0,2,1.5,2,2.5,4,1,1.5,1,1,0.5,3.5-1.5,1-1.5,2.5-1.5,2.5-1.5,1.5,0.5,2.5,0.5,2.5,6.5,1,16.5,1,23,0,0,0,1.5-1,0-2.5,0,0,0.5-1.5-1-2.5-0.5-2.5-0.5-2,0.5-3.5,1-2,2.5-2,2.5-4-8.5-1.5-18.5-1.5-27,0z" fill-rule="evenodd" stroke-linecap="butt" fill="#FFF"/>
    <path d="M11.5,30c3.5-1,18.5-1,22,0" stroke-linecap="round" fill="none"/>
    <path d="m12,33.5c6-1,15-1,21,0" stroke-linecap="round" fill="none"/>
  </g>
</svg>
